# MagicaVoxel @ Ephtracy

# group
o 

# material
mtllib CubePlayer.mtl
usemtl palette

# normals
vn -1 0 0
vn 1 0 0
vn 0 0 1
vn 0 0 -1
vn 0 -1 0
vn 0 1 0

# texcoords
vt 0.841797 0.5
vt 0.958984 0.5
vt 0.990234 0.5

# verts
v -0.5 0.3 0.1
v -0.5 0.3 -0.1
v -0.5 0.5 0.1
v -0.5 0.5 -0.1
v -0.4 0 0.3
v -0.4 0 0.1
v -0.4 0 -0.1
v -0.4 0 -0.3
v -0.4 0.1 0.3
v -0.4 0.1 0.2
v -0.4 0.1 0.1
v -0.4 0.1 -0.1
v -0.4 0.1 -0.2
v -0.4 0.1 -0.3
v -0.4 0.3 0.1
v -0.4 0.3 -0.1
v -0.4 0.4 0.2
v -0.4 0.4 0.1
v -0.4 0.4 -0.1
v -0.4 0.4 -0.2
v 0 0.4 0.2
v 0 0.4 0.1
v 0 0.4 0
v 0 0.4 -0.1
v 0 0.4 -0.2
v 0 0.5 0.1
v 0 0.5 -0.1
v 0 0.6 0.1
v 0 0.6 -0.1
v 0 0.9 0.2
v 0 0.9 0.1
v 0 0.9 -0.1
v 0 0.9 -0.2
v 0.1 0 0.2
v 0.1 0 0.1
v 0.1 0 -0.1
v 0.1 0 -0.2
v 0.1 0.1 0.2
v 0.1 0.1 0.1
v 0.1 0.1 -0.1
v 0.1 0.1 -0.2
v -0.3 0.4 0.1
v -0.3 0.4 -0.1
v -0.3 0.5 0.1
v -0.3 0.5 -0.1
v -0.1 0 0.3
v -0.1 0 0.1
v -0.1 0 -0.1
v -0.1 0 -0.3
v -0.1 0.1 0.3
v -0.1 0.1 0.2
v -0.1 0.1 0.1
v -0.1 0.1 -0.1
v -0.1 0.1 -0.2
v -0.1 0.1 -0.3
v 0.1 0.6 0.2
v 0.1 0.6 0.1
v 0.1 0.6 -0.1
v 0.1 0.6 -0.2
v 0.1 0.9 0.2
v 0.1 0.9 0.1
v 0.1 0.9 -0.1
v 0.1 0.9 -0.2
v 0.2 0.1 0.2
v 0.2 0.1 0.1
v 0.2 0.1 0
v 0.2 0.1 -0.1
v 0.2 0.1 -0.2
v 0.2 0.2 0.1
v 0.2 0.2 0
v 0.2 0.2 -0.1
v 0.2 0.3 0.2
v 0.2 0.3 0.1
v 0.2 0.3 -0.1
v 0.2 0.3 -0.2
v 0.3 0 0.2
v 0.3 0 0.1
v 0.3 0 -0.1
v 0.3 0 -0.2
v 0.3 0.1 0.2
v 0.3 0.1 0.1
v 0.3 0.1 -0.1
v 0.3 0.1 -0.2
v 0.3 0.2 0.1
v 0.3 0.2 0
v 0.3 0.2 -0.1
v 0.3 0.3 0.2
v 0.3 0.3 0.1
v 0.3 0.3 0
v 0.3 0.3 -0.1
v 0.3 0.3 -0.2
v 0.3 0.4 0.2
v 0.3 0.4 0.1
v 0.3 0.4 -0.1
v 0.3 0.4 -0.2
v 0.3 0.5 0.2
v 0.3 0.5 0.1
v 0.3 0.5 -0.1
v 0.3 0.5 -0.2
v 0.3 0.6 0.2
v 0.3 0.6 -0.2
v 0.4 0.3 0.1
v 0.4 0.3 -0.1
v 0.4 0.4 0.1
v 0.4 0.4 -0.1
v -0.4 0 0.3
v -0.4 0.1 0.3
v -0.2 0 0.3
v -0.2 0.1 0.3
v -0.1 0 0.3
v -0.1 0.1 0.3
v -0.4 0.1 0.2
v -0.4 0.4 0.2
v -0.2 0.1 0.2
v -0.1 0.1 0.2
v 0 0.4 0.2
v 0 0.9 0.2
v 0.1 0 0.2
v 0.1 0.1 0.2
v 0.1 0.6 0.2
v 0.1 0.9 0.2
v 0.2 0.1 0.2
v 0.2 0.3 0.2
v 0.2 0.4 0.2
v 0.2 0.5 0.2
v 0.3 0 0.2
v 0.3 0.1 0.2
v 0.3 0.3 0.2
v 0.3 0.4 0.2
v 0.3 0.5 0.2
v 0.3 0.6 0.2
v -0.5 0.3 0.1
v -0.5 0.5 0.1
v -0.4 0.3 0.1
v -0.4 0.4 0.1
v -0.3 0.4 0.1
v -0.3 0.5 0.1
v 0.2 0.2 0.1
v 0.2 0.3 0.1
v 0.3 0.2 0.1
v 0.3 0.3 0.1
v 0.3 0.4 0.1
v 0.4 0.3 0.1
v 0.4 0.4 0.1
v -0.4 0 -0.1
v -0.4 0.1 -0.1
v -0.2 0 -0.1
v -0.2 0.1 -0.1
v -0.1 0 -0.1
v -0.1 0.1 -0.1
v 0 0.6 -0.1
v 0 0.9 -0.1
v 0.1 0 -0.1
v 0.1 0.1 -0.1
v 0.1 0.6 -0.1
v 0.1 0.9 -0.1
v 0.2 0.1 -0.1
v 0.3 0 -0.1
v 0.3 0.1 -0.1
v -0.4 0 0.1
v -0.4 0.1 0.1
v -0.2 0 0.1
v -0.2 0.1 0.1
v -0.1 0 0.1
v -0.1 0.1 0.1
v 0 0.6 0.1
v 0 0.9 0.1
v 0.1 0 0.1
v 0.1 0.1 0.1
v 0.1 0.6 0.1
v 0.1 0.9 0.1
v 0.2 0.1 0.1
v 0.3 0 0.1
v 0.3 0.1 0.1
v -0.5 0.3 -0.1
v -0.5 0.5 -0.1
v -0.4 0.3 -0.1
v -0.4 0.4 -0.1
v -0.3 0.4 -0.1
v -0.3 0.5 -0.1
v 0.2 0.2 -0.1
v 0.2 0.3 -0.1
v 0.3 0.2 -0.1
v 0.3 0.3 -0.1
v 0.3 0.4 -0.1
v 0.4 0.3 -0.1
v 0.4 0.4 -0.1
v -0.4 0.1 -0.2
v -0.4 0.4 -0.2
v -0.2 0.1 -0.2
v -0.1 0.1 -0.2
v -0.1 0.2 -0.2
v -0.1 0.4 -0.2
v 0 0.1 -0.2
v 0 0.2 -0.2
v 0 0.3 -0.2
v 0 0.4 -0.2
v 0 0.9 -0.2
v 0.1 0 -0.2
v 0.1 0.1 -0.2
v 0.1 0.6 -0.2
v 0.1 0.9 -0.2
v 0.2 0.1 -0.2
v 0.2 0.3 -0.2
v 0.2 0.4 -0.2
v 0.2 0.5 -0.2
v 0.3 0 -0.2
v 0.3 0.1 -0.2
v 0.3 0.3 -0.2
v 0.3 0.4 -0.2
v 0.3 0.5 -0.2
v 0.3 0.6 -0.2
v -0.4 0 -0.3
v -0.4 0.1 -0.3
v -0.2 0 -0.3
v -0.2 0.1 -0.3
v -0.1 0 -0.3
v -0.1 0.1 -0.3
v -0.4 0 0.3
v -0.2 0 0.3
v -0.1 0 0.3
v 0.1 0 0.2
v 0.3 0 0.2
v -0.4 0 0.1
v -0.2 0 0.1
v -0.1 0 0.1
v 0.1 0 0.1
v 0.3 0 0.1
v -0.4 0 -0.1
v -0.2 0 -0.1
v -0.1 0 -0.1
v 0.1 0 -0.1
v 0.3 0 -0.1
v 0.1 0 -0.2
v 0.3 0 -0.2
v -0.4 0 -0.3
v -0.2 0 -0.3
v -0.1 0 -0.3
v -0.1 0.1 0.2
v 0.1 0.1 0.2
v -0.4 0.1 0.1
v -0.2 0.1 0.1
v -0.1 0.1 0.1
v 0.1 0.1 0.1
v 0.2 0.1 0.1
v 0 0.1 0
v 0.2 0.1 0
v -0.4 0.1 -0.1
v -0.2 0.1 -0.1
v -0.1 0.1 -0.1
v 0.1 0.1 -0.1
v 0.2 0.1 -0.1
v -0.1 0.1 -0.2
v 0 0.1 -0.2
v 0.1 0.1 -0.2
v 0.2 0.2 0.1
v 0.3 0.2 0.1
v 0.2 0.2 0
v 0.3 0.2 0
v 0.2 0.2 -0.1
v 0.3 0.2 -0.1
v 0.2 0.3 0.2
v 0.3 0.3 0.2
v -0.5 0.3 0.1
v -0.4 0.3 0.1
v 0.2 0.3 0.1
v 0.3 0.3 0.1
v 0.4 0.3 0.1
v 0.3 0.3 0
v -0.5 0.3 -0.1
v -0.4 0.3 -0.1
v 0.2 0.3 -0.1
v 0.3 0.3 -0.1
v 0.4 0.3 -0.1
v 0.2 0.3 -0.2
v 0.3 0.3 -0.2
v -0.4 0.1 0.3
v -0.2 0.1 0.3
v -0.1 0.1 0.3
v -0.4 0.1 0.2
v -0.2 0.1 0.2
v -0.1 0.1 0.2
v 0.2 0.1 0.2
v 0.3 0.1 0.2
v 0.2 0.1 0.1
v 0.3 0.1 0.1
v 0.2 0.1 -0.1
v 0.3 0.1 -0.1
v -0.4 0.1 -0.2
v -0.2 0.1 -0.2
v -0.1 0.1 -0.2
v 0.2 0.1 -0.2
v 0.3 0.1 -0.2
v -0.4 0.1 -0.3
v -0.2 0.1 -0.3
v -0.1 0.1 -0.3
v -0.4 0.4 0.2
v 0 0.4 0.2
v -0.4 0.4 0.1
v -0.3 0.4 0.1
v 0 0.4 0.1
v 0.3 0.4 0.1
v 0.4 0.4 0.1
v -0.1 0.4 0
v 0 0.4 0
v -0.4 0.4 -0.1
v -0.3 0.4 -0.1
v 0 0.4 -0.1
v 0.3 0.4 -0.1
v 0.4 0.4 -0.1
v -0.4 0.4 -0.2
v -0.1 0.4 -0.2
v 0 0.4 -0.2
v -0.5 0.5 0.1
v -0.3 0.5 0.1
v -0.5 0.5 -0.1
v -0.3 0.5 -0.1
v 0.1 0.6 0.2
v 0.3 0.6 0.2
v 0 0.6 0.1
v 0.1 0.6 0.1
v 0 0.6 -0.1
v 0.1 0.6 -0.1
v 0.1 0.6 -0.2
v 0.3 0.6 -0.2
v 0 0.9 0.2
v 0.1 0.9 0.2
v 0 0.9 0.1
v 0.1 0.9 0.1
v 0 0.9 -0.1
v 0.1 0.9 -0.1
v 0 0.9 -0.2
v 0.1 0.9 -0.2

# faces
f 3/3/1 2/3/1 1/3/1
f 4/3/1 2/3/1 3/3/1
f 9/3/1 6/3/1 5/3/1
f 10/3/1 6/3/1 9/3/1
f 11/3/1 6/3/1 10/3/1
f 12/3/1 8/3/1 7/3/1
f 13/3/1 8/3/1 12/3/1
f 14/3/1 8/3/1 13/3/1
f 15/3/1 11/3/1 10/3/1
f 15/3/1 13/3/1 12/3/1
f 15/3/1 12/3/1 11/3/1
f 16/3/1 13/3/1 15/3/1
f 17/3/1 15/3/1 10/3/1
f 18/3/1 15/3/1 17/3/1
f 19/3/1 13/3/1 16/3/1
f 20/3/1 13/3/1 19/3/1
f 26/3/1 22/3/1 21/3/1
f 26/2/1 23/2/1 22/2/1
f 26/2/1 24/2/1 23/2/1
f 27/3/1 25/3/1 24/3/1
f 27/2/1 24/2/1 26/2/1
f 28/3/1 26/3/1 21/3/1
f 28/3/1 27/3/1 26/3/1
f 29/3/1 25/3/1 27/3/1
f 29/3/1 27/3/1 28/3/1
f 30/3/1 28/3/1 21/3/1
f 31/3/1 28/3/1 30/3/1
f 32/3/1 25/3/1 29/3/1
f 33/3/1 25/3/1 32/3/1
f 38/3/1 35/3/1 34/3/1
f 39/3/1 35/3/1 38/3/1
f 40/2/1 37/2/1 36/2/1
f 41/2/1 37/2/1 40/2/1
f 42/3/2 43/3/2 44/3/2
f 44/3/2 43/3/2 45/3/2
f 46/2/2 47/2/2 50/2/2
f 50/2/2 47/2/2 51/2/2
f 51/2/2 47/2/2 52/2/2
f 48/2/2 49/2/2 53/2/2
f 53/2/2 49/2/2 54/2/2
f 54/2/2 49/2/2 55/2/2
f 56/3/2 57/3/2 60/3/2
f 60/3/2 57/3/2 61/3/2
f 58/3/2 59/3/2 62/3/2
f 62/3/2 59/3/2 63/3/2
f 64/3/2 65/3/2 69/3/2
f 65/3/2 66/3/2 69/3/2
f 67/2/2 68/2/2 70/2/2
f 69/3/2 66/3/2 70/3/2
f 66/2/2 67/2/2 70/2/2
f 70/2/2 68/2/2 71/2/2
f 64/3/2 69/3/2 72/3/2
f 72/3/2 69/3/2 73/3/2
f 71/2/2 68/2/2 74/2/2
f 74/2/2 68/2/2 75/2/2
f 76/3/2 77/3/2 80/3/2
f 80/3/2 77/3/2 81/3/2
f 78/2/2 79/2/2 82/2/2
f 82/2/2 79/2/2 83/2/2
f 84/3/2 85/3/2 88/3/2
f 85/2/2 86/2/2 89/2/2
f 88/3/2 85/3/2 89/3/2
f 89/2/2 86/2/2 90/2/2
f 87/3/2 88/3/2 92/3/2
f 92/3/2 88/3/2 93/3/2
f 90/3/2 91/3/2 94/3/2
f 94/3/2 91/3/2 95/3/2
f 92/1/2 93/1/2 96/1/2
f 93/3/2 94/3/2 97/3/2
f 96/1/2 93/1/2 97/1/2
f 94/1/2 95/1/2 98/1/2
f 97/3/2 94/3/2 98/3/2
f 98/1/2 95/1/2 99/1/2
f 96/3/2 97/3/2 100/3/2
f 97/3/2 98/3/2 100/3/2
f 98/3/2 99/3/2 100/3/2
f 100/3/2 99/3/2 101/3/2
f 102/2/2 103/2/2 104/2/2
f 104/2/2 103/2/2 105/2/2
f 108/3/3 107/3/3 106/3/3
f 109/3/3 107/3/3 108/3/3
f 110/2/3 109/2/3 108/2/3
f 111/2/3 109/2/3 110/2/3
f 114/3/3 113/3/3 112/3/3
f 115/3/3 113/3/3 114/3/3
f 116/3/3 113/3/3 115/3/3
f 119/3/3 116/3/3 115/3/3
f 119/3/3 117/3/3 116/3/3
f 120/3/3 117/3/3 119/3/3
f 121/3/3 117/3/3 120/3/3
f 122/3/3 119/3/3 118/3/3
f 122/3/3 120/3/3 119/3/3
f 123/3/3 120/3/3 122/3/3
f 124/3/3 120/3/3 123/3/3
f 125/3/3 120/3/3 124/3/3
f 126/3/3 122/3/3 118/3/3
f 127/3/3 122/3/3 126/3/3
f 128/3/3 124/3/3 123/3/3
f 129/1/3 125/1/3 124/1/3
f 129/3/3 124/3/3 128/3/3
f 130/3/3 120/3/3 125/3/3
f 130/1/3 125/1/3 129/1/3
f 131/3/3 120/3/3 130/3/3
f 134/3/3 133/3/3 132/3/3
f 135/3/3 133/3/3 134/3/3
f 136/3/3 133/3/3 135/3/3
f 137/3/3 133/3/3 136/3/3
f 140/3/3 139/3/3 138/3/3
f 141/3/3 139/3/3 140/3/3
f 143/2/3 142/2/3 141/2/3
f 144/2/3 142/2/3 143/2/3
f 147/3/3 146/3/3 145/3/3
f 148/3/3 146/3/3 147/3/3
f 149/2/3 148/2/3 147/2/3
f 150/2/3 148/2/3 149/2/3
f 155/3/3 152/3/3 151/3/3
f 156/3/3 152/3/3 155/3/3
f 157/2/3 154/2/3 153/2/3
f 158/2/3 157/2/3 153/2/3
f 159/2/3 157/2/3 158/2/3
f 160/3/4 161/3/4 162/3/4
f 162/3/4 161/3/4 163/3/4
f 162/2/4 163/2/4 164/2/4
f 164/2/4 163/2/4 165/2/4
f 166/3/4 167/3/4 170/3/4
f 170/3/4 167/3/4 171/3/4
f 168/3/4 169/3/4 172/3/4
f 168/3/4 172/3/4 173/3/4
f 173/3/4 172/3/4 174/3/4
f 175/3/4 176/3/4 177/3/4
f 177/3/4 176/3/4 178/3/4
f 178/3/4 176/3/4 179/3/4
f 179/3/4 176/3/4 180/3/4
f 181/2/4 182/2/4 183/2/4
f 183/2/4 182/2/4 184/2/4
f 184/2/4 185/2/4 186/2/4
f 186/2/4 185/2/4 187/2/4
f 188/3/4 189/3/4 190/3/4
f 190/3/4 189/3/4 191/3/4
f 191/3/4 189/3/4 192/3/4
f 192/3/4 189/3/4 193/3/4
f 191/3/4 192/3/4 194/3/4
f 192/2/4 193/2/4 195/2/4
f 194/3/4 192/3/4 195/3/4
f 195/2/4 193/2/4 196/2/4
f 196/2/4 193/2/4 197/2/4
f 194/2/4 195/2/4 200/2/4
f 195/2/4 196/2/4 200/2/4
f 196/3/4 197/3/4 201/3/4
f 197/3/4 198/3/4 201/3/4
f 201/3/4 198/3/4 202/3/4
f 199/2/4 200/2/4 203/2/4
f 200/2/4 196/2/4 203/2/4
f 196/3/4 201/3/4 204/3/4
f 203/2/4 196/2/4 204/2/4
f 204/3/4 201/3/4 205/3/4
f 205/3/4 201/3/4 206/3/4
f 199/2/4 203/2/4 207/2/4
f 207/2/4 203/2/4 208/2/4
f 204/3/4 205/3/4 209/3/4
f 205/1/4 206/1/4 210/1/4
f 209/3/4 205/3/4 210/3/4
f 206/3/4 201/3/4 211/3/4
f 210/1/4 206/1/4 211/1/4
f 211/3/4 201/3/4 212/3/4
f 213/3/4 214/3/4 215/3/4
f 215/3/4 214/3/4 216/3/4
f 215/2/4 216/2/4 217/2/4
f 217/2/4 216/2/4 218/2/4
f 224/3/5 220/3/5 219/3/5
f 225/2/5 221/2/5 220/2/5
f 225/3/5 220/3/5 224/3/5
f 226/2/5 221/2/5 225/2/5
f 227/3/5 223/3/5 222/3/5
f 228/3/5 223/3/5 227/3/5
f 234/2/5 233/2/5 232/2/5
f 235/2/5 233/2/5 234/2/5
f 236/3/5 230/3/5 229/3/5
f 237/2/5 231/2/5 230/2/5
f 237/3/5 230/3/5 236/3/5
f 238/2/5 231/2/5 237/2/5
f 243/3/5 240/3/5 239/3/5
f 244/3/5 240/3/5 243/3/5
f 246/3/5 242/3/5 241/3/5
f 246/3/5 245/3/5 244/3/5
f 246/3/5 244/3/5 243/3/5
f 246/3/5 243/3/5 242/3/5
f 247/3/5 245/3/5 246/3/5
f 248/3/5 246/3/5 241/3/5
f 249/3/5 246/3/5 248/3/5
f 250/3/5 246/3/5 249/3/5
f 251/2/5 247/2/5 246/2/5
f 252/2/5 247/2/5 251/2/5
f 253/3/5 246/3/5 250/3/5
f 254/2/5 251/2/5 246/2/5
f 254/3/5 246/3/5 253/3/5
f 255/2/5 251/2/5 254/2/5
f 258/3/5 257/3/5 256/3/5
f 259/3/5 257/3/5 258/3/5
f 260/2/5 259/2/5 258/2/5
f 261/2/5 259/2/5 260/2/5
f 266/3/5 263/3/5 262/3/5
f 267/3/5 263/3/5 266/3/5
f 269/2/5 268/2/5 267/2/5
f 270/3/5 265/3/5 264/3/5
f 271/3/5 265/3/5 270/3/5
f 273/2/5 268/2/5 269/2/5
f 274/2/5 268/2/5 273/2/5
f 275/3/5 273/3/5 272/3/5
f 276/3/5 273/3/5 275/3/5
f 277/3/6 278/3/6 280/3/6
f 278/2/6 279/2/6 281/2/6
f 280/3/6 278/3/6 281/3/6
f 281/2/6 279/2/6 282/2/6
f 283/3/6 284/3/6 285/3/6
f 285/3/6 284/3/6 286/3/6
f 287/2/6 288/2/6 292/2/6
f 292/2/6 288/2/6 293/2/6
f 289/3/6 290/3/6 294/3/6
f 290/2/6 291/2/6 295/2/6
f 294/3/6 290/3/6 295/3/6
f 295/2/6 291/2/6 296/2/6
f 297/3/6 298/3/6 299/3/6
f 299/3/6 298/3/6 300/3/6
f 300/3/6 298/3/6 301/3/6
f 300/3/6 301/3/6 304/3/6
f 304/3/6 301/3/6 305/3/6
f 300/3/6 304/3/6 307/3/6
f 304/2/6 305/2/6 308/2/6
f 302/2/6 303/2/6 309/2/6
f 309/2/6 303/2/6 310/2/6
f 306/3/6 307/3/6 311/3/6
f 304/2/6 308/2/6 312/2/6
f 311/3/6 307/3/6 312/3/6
f 307/3/6 304/3/6 312/3/6
f 312/2/6 308/2/6 313/2/6
f 314/3/6 315/3/6 316/3/6
f 316/3/6 315/3/6 317/3/6
f 318/3/6 319/3/6 321/3/6
f 320/3/6 321/3/6 322/3/6
f 321/3/6 319/3/6 323/3/6
f 322/3/6 321/3/6 323/3/6
f 323/3/6 319/3/6 324/3/6
f 324/3/6 319/3/6 325/3/6
f 326/3/6 327/3/6 328/3/6
f 328/3/6 327/3/6 329/3/6
f 330/3/6 331/3/6 332/3/6
f 332/3/6 331/3/6 333/3/6
