# MagicaVoxel @ Ephtracy

# group
o 

# material
mtllib Cylinder_Temp.mtl
usemtl palette

# normals
vn -1 0 0
vn 1 0 0
vn 0 0 1
vn 0 0 -1
vn 0 -1 0
vn 0 1 0

# texcoords
vt 0.716797 0.5
vt 0.880859 0.5
vt 0.888672 0.5
vt 0.904297 0.5

# verts
v -0.5 0 0.2
v -0.5 0 -0.2
v -0.5 5 0.2
v -0.5 5 -0.2
v -0.4 0 0.4
v -0.4 0 0.2
v -0.4 0 -0.2
v -0.4 0 -0.4
v -0.4 0.1 0.4
v -0.4 0.1 0.2
v -0.4 0.1 -0.2
v -0.4 0.1 -0.4
v -0.4 4.9 0.4
v -0.4 4.9 0.2
v -0.4 4.9 -0.2
v -0.4 4.9 -0.4
v -0.4 5 0.4
v -0.4 5 0.2
v -0.4 5 -0.2
v -0.4 5 -0.4
v -0.2 0 0.5
v -0.2 0 0.4
v -0.2 0 -0.4
v -0.2 0 -0.5
v -0.2 0.1 0.5
v -0.2 0.1 0.4
v -0.2 0.1 -0.4
v -0.2 0.1 -0.5
v -0.2 4.9 0.5
v -0.2 4.9 0.4
v -0.2 4.9 -0.4
v -0.2 4.9 -0.5
v -0.2 5 0.5
v -0.2 5 0.4
v -0.2 5 -0.4
v -0.2 5 -0.5
v 0.2 0 0.5
v 0.2 0 0.4
v 0.2 0 -0.4
v 0.2 0 -0.5
v 0.2 0.1 0.5
v 0.2 0.1 0.4
v 0.2 0.1 -0.4
v 0.2 0.1 -0.5
v 0.2 4.9 0.5
v 0.2 4.9 0.4
v 0.2 4.9 -0.4
v 0.2 4.9 -0.5
v 0.2 5 0.5
v 0.2 5 0.4
v 0.2 5 -0.4
v 0.2 5 -0.5
v 0.4 0 0.4
v 0.4 0 0.2
v 0.4 0 -0.2
v 0.4 0 -0.4
v 0.4 0.1 0.4
v 0.4 0.1 0.2
v 0.4 0.1 -0.2
v 0.4 0.1 -0.4
v 0.4 4.9 0.4
v 0.4 4.9 0.2
v 0.4 4.9 -0.2
v 0.4 4.9 -0.4
v 0.4 5 0.4
v 0.4 5 0.2
v 0.4 5 -0.2
v 0.4 5 -0.4
v 0.5 0 0.2
v 0.5 0 -0.2
v 0.5 5 0.2
v 0.5 5 -0.2
v -0.2 0 0.5
v -0.2 0.1 0.5
v -0.2 4.9 0.5
v -0.2 5 0.5
v -0.1 0.1 0.5
v -0.1 4.9 0.5
v 0.2 0 0.5
v 0.2 0.1 0.5
v 0.2 4.9 0.5
v 0.2 5 0.5
v -0.4 0 0.4
v -0.4 0.1 0.4
v -0.4 4.9 0.4
v -0.4 5 0.4
v -0.2 0 0.4
v -0.2 0.1 0.4
v -0.2 4.9 0.4
v -0.2 5 0.4
v 0.2 0 0.4
v 0.2 0.1 0.4
v 0.2 4.9 0.4
v 0.2 5 0.4
v 0.3 0.1 0.4
v 0.3 4.9 0.4
v 0.4 0 0.4
v 0.4 0.1 0.4
v 0.4 4.9 0.4
v 0.4 5 0.4
v -0.5 0 0.2
v -0.5 5 0.2
v -0.4 0 0.2
v -0.4 0.1 0.2
v -0.4 4.9 0.2
v -0.4 5 0.2
v 0.4 0 0.2
v 0.4 0.1 0.2
v 0.4 4.9 0.2
v 0.4 5 0.2
v 0.5 0 0.2
v 0.5 5 0.2
v -0.5 0 -0.2
v -0.5 5 -0.2
v -0.4 0 -0.2
v -0.4 0.1 -0.2
v -0.4 4.9 -0.2
v -0.4 5 -0.2
v 0.4 0 -0.2
v 0.4 0.1 -0.2
v 0.4 4.9 -0.2
v 0.4 5 -0.2
v 0.5 0 -0.2
v 0.5 5 -0.2
v -0.4 0 -0.4
v -0.4 0.1 -0.4
v -0.4 4.9 -0.4
v -0.4 5 -0.4
v -0.3 0.1 -0.4
v -0.3 4.9 -0.4
v -0.2 0 -0.4
v -0.2 0.1 -0.4
v -0.2 4.9 -0.4
v -0.2 5 -0.4
v 0.2 0 -0.4
v 0.2 0.1 -0.4
v 0.2 4.9 -0.4
v 0.2 5 -0.4
v 0.4 0 -0.4
v 0.4 0.1 -0.4
v 0.4 4.9 -0.4
v 0.4 5 -0.4
v -0.2 0 -0.5
v -0.2 0.1 -0.5
v -0.2 4.9 -0.5
v -0.2 5 -0.5
v 0.1 0.1 -0.5
v 0.1 4.9 -0.5
v 0.2 0 -0.5
v 0.2 0.1 -0.5
v 0.2 4.9 -0.5
v 0.2 5 -0.5
v -0.2 0 0.5
v 0.2 0 0.5
v -0.4 0 0.4
v -0.2 0 0.4
v 0.2 0 0.4
v 0.4 0 0.4
v -0.5 0 0.2
v -0.4 0 0.2
v 0.4 0 0.2
v 0.5 0 0.2
v -0.5 0 -0.2
v -0.4 0 -0.2
v 0.4 0 -0.2
v 0.5 0 -0.2
v -0.4 0 -0.4
v -0.2 0 -0.4
v 0.2 0 -0.4
v 0.4 0 -0.4
v -0.2 0 -0.5
v 0.2 0 -0.5
v -0.2 5 0.5
v 0.2 5 0.5
v -0.4 5 0.4
v -0.2 5 0.4
v 0.2 5 0.4
v 0.4 5 0.4
v -0.5 5 0.2
v -0.4 5 0.2
v 0.4 5 0.2
v 0.5 5 0.2
v -0.5 5 -0.2
v -0.4 5 -0.2
v 0.4 5 -0.2
v 0.5 5 -0.2
v -0.4 5 -0.4
v -0.2 5 -0.4
v 0.2 5 -0.4
v 0.4 5 -0.4
v -0.2 5 -0.5
v 0.2 5 -0.5

# faces
f 3/4/1 2/4/1 1/4/1
f 4/4/1 2/4/1 3/4/1
f 9/4/1 6/4/1 5/4/1
f 10/4/1 6/4/1 9/4/1
f 11/4/1 8/4/1 7/4/1
f 12/4/1 8/4/1 11/4/1
f 13/2/1 10/2/1 9/2/1
f 14/2/1 10/2/1 13/2/1
f 15/2/1 12/2/1 11/2/1
f 16/2/1 12/2/1 15/2/1
f 17/4/1 14/4/1 13/4/1
f 18/4/1 14/4/1 17/4/1
f 19/4/1 16/4/1 15/4/1
f 20/4/1 16/4/1 19/4/1
f 25/4/1 22/4/1 21/4/1
f 26/4/1 22/4/1 25/4/1
f 27/4/1 24/4/1 23/4/1
f 28/4/1 24/4/1 27/4/1
f 29/1/1 26/1/1 25/1/1
f 30/1/1 26/1/1 29/1/1
f 31/2/1 28/2/1 27/2/1
f 32/2/1 28/2/1 31/2/1
f 33/4/1 30/4/1 29/4/1
f 34/4/1 30/4/1 33/4/1
f 35/4/1 32/4/1 31/4/1
f 36/4/1 32/4/1 35/4/1
f 37/4/2 38/4/2 41/4/2
f 41/4/2 38/4/2 42/4/2
f 39/4/2 40/4/2 43/4/2
f 43/4/2 40/4/2 44/4/2
f 41/2/2 42/2/2 45/2/2
f 45/2/2 42/2/2 46/2/2
f 43/1/2 44/1/2 47/1/2
f 47/1/2 44/1/2 48/1/2
f 45/4/2 46/4/2 49/4/2
f 49/4/2 46/4/2 50/4/2
f 47/4/2 48/4/2 51/4/2
f 51/4/2 48/4/2 52/4/2
f 53/4/2 54/4/2 57/4/2
f 57/4/2 54/4/2 58/4/2
f 55/4/2 56/4/2 59/4/2
f 59/4/2 56/4/2 60/4/2
f 57/2/2 58/2/2 61/2/2
f 61/2/2 58/2/2 62/2/2
f 59/2/2 60/2/2 63/2/2
f 63/2/2 60/2/2 64/2/2
f 61/4/2 62/4/2 65/4/2
f 65/4/2 62/4/2 66/4/2
f 63/4/2 64/4/2 67/4/2
f 67/4/2 64/4/2 68/4/2
f 69/4/2 70/4/2 71/4/2
f 71/4/2 70/4/2 72/4/2
f 77/4/3 74/4/3 73/4/3
f 77/1/3 75/1/3 74/1/3
f 78/4/3 76/4/3 75/4/3
f 78/1/3 75/1/3 77/1/3
f 79/4/3 77/4/3 73/4/3
f 80/2/3 78/2/3 77/2/3
f 80/4/3 77/4/3 79/4/3
f 81/4/3 76/4/3 78/4/3
f 81/2/3 78/2/3 80/2/3
f 82/4/3 76/4/3 81/4/3
f 87/4/3 84/4/3 83/4/3
f 88/2/3 85/2/3 84/2/3
f 88/4/3 84/4/3 87/4/3
f 89/4/3 86/4/3 85/4/3
f 89/2/3 85/2/3 88/2/3
f 90/4/3 86/4/3 89/4/3
f 95/4/3 92/4/3 91/4/3
f 95/3/3 93/3/3 92/3/3
f 96/4/3 94/4/3 93/4/3
f 96/3/3 93/3/3 95/3/3
f 97/4/3 95/4/3 91/4/3
f 98/2/3 96/2/3 95/2/3
f 98/4/3 95/4/3 97/4/3
f 99/4/3 94/4/3 96/4/3
f 99/2/3 96/2/3 98/2/3
f 100/4/3 94/4/3 99/4/3
f 103/4/3 102/4/3 101/4/3
f 104/4/3 102/4/3 103/4/3
f 105/4/3 102/4/3 104/4/3
f 106/4/3 102/4/3 105/4/3
f 111/4/3 108/4/3 107/4/3
f 111/4/3 110/4/3 109/4/3
f 111/4/3 109/4/3 108/4/3
f 112/4/3 110/4/3 111/4/3
f 113/4/4 114/4/4 115/4/4
f 115/4/4 114/4/4 116/4/4
f 116/4/4 114/4/4 117/4/4
f 117/4/4 114/4/4 118/4/4
f 119/4/4 120/4/4 123/4/4
f 121/4/4 122/4/4 123/4/4
f 120/4/4 121/4/4 123/4/4
f 123/4/4 122/4/4 124/4/4
f 125/4/4 126/4/4 129/4/4
f 126/2/4 127/2/4 129/2/4
f 127/4/4 128/4/4 130/4/4
f 129/2/4 127/2/4 130/2/4
f 125/4/4 129/4/4 131/4/4
f 129/3/4 130/3/4 132/3/4
f 131/4/4 129/4/4 132/4/4
f 130/4/4 128/4/4 133/4/4
f 132/3/4 130/3/4 133/3/4
f 133/4/4 128/4/4 134/4/4
f 135/4/4 136/4/4 139/4/4
f 136/2/4 137/2/4 140/2/4
f 139/4/4 136/4/4 140/4/4
f 137/4/4 138/4/4 141/4/4
f 140/2/4 137/2/4 141/2/4
f 141/4/4 138/4/4 142/4/4
f 143/4/4 144/4/4 147/4/4
f 144/2/4 145/2/4 147/2/4
f 145/4/4 146/4/4 148/4/4
f 147/2/4 145/2/4 148/2/4
f 143/4/4 147/4/4 149/4/4
f 147/1/4 148/1/4 150/1/4
f 149/4/4 147/4/4 150/4/4
f 148/4/4 146/4/4 151/4/4
f 150/1/4 148/1/4 151/1/4
f 151/4/4 146/4/4 152/4/4
f 156/4/5 154/4/5 153/4/5
f 157/4/5 154/4/5 156/4/5
f 160/4/5 156/4/5 155/4/5
f 160/4/5 158/4/5 157/4/5
f 160/4/5 157/4/5 156/4/5
f 161/4/5 158/4/5 160/4/5
f 163/4/5 160/4/5 159/4/5
f 163/4/5 162/4/5 161/4/5
f 163/4/5 161/4/5 160/4/5
f 164/4/5 162/4/5 163/4/5
f 165/4/5 162/4/5 164/4/5
f 166/4/5 162/4/5 165/4/5
f 167/4/5 165/4/5 164/4/5
f 168/4/5 165/4/5 167/4/5
f 169/4/5 165/4/5 168/4/5
f 170/4/5 165/4/5 169/4/5
f 171/4/5 169/4/5 168/4/5
f 172/4/5 169/4/5 171/4/5
f 173/4/6 174/4/6 176/4/6
f 176/4/6 174/4/6 177/4/6
f 175/4/6 176/4/6 180/4/6
f 177/4/6 178/4/6 180/4/6
f 176/4/6 177/4/6 180/4/6
f 180/4/6 178/4/6 181/4/6
f 179/4/6 180/4/6 183/4/6
f 181/4/6 182/4/6 183/4/6
f 180/4/6 181/4/6 183/4/6
f 183/4/6 182/4/6 184/4/6
f 184/4/6 182/4/6 185/4/6
f 185/4/6 182/4/6 186/4/6
f 184/4/6 185/4/6 187/4/6
f 187/4/6 185/4/6 188/4/6
f 188/4/6 185/4/6 189/4/6
f 189/4/6 185/4/6 190/4/6
f 188/4/6 189/4/6 191/4/6
f 191/4/6 189/4/6 192/4/6
